<svg xmlns="http://www.w3.org/2000/svg" viewBox="-20 0 160 140" aria-hidden="true">
  <path fill="#334b5a" fill-rule="evenodd" d="M54 0h12a6 6 0 0 1 6 6v9h18c14.4 0 26.5 10.2 29.3 23.8h7.7c7.2 0 13 5.8 13 13v17.4c0 7.2-5.8 13-13 13h-7.1c-1.3 15.5-14.3 27.8-30.2 27.8H30.3C14.4 110 1.4 97.8.1 82.2H-7c-7.2 0-13-5.8-13-13V51.8c0-7.2 5.8-13 13-13H.7C3.5 25.2 15.6 15 30 15h24V6a6 6 0 0 1 6-6ZM30 27c-10 0-18 8-18 18v35c0 10 8 18 18 18h60c10 0 18-8 18-18V45c0-10-8-18-18-18H30Zm21.7 19.6c.8-3.9 4.2-6.6 8.3-6.6s7.5 2.7 8.3 6.6l8.3 36.7a6 6 0 1 1-11.7 2.6l-1.3-5.9h-7.2l-1.3 5.9a6 6 0 0 1-11.7-2.6l8.3-36.7ZM59 68h2l-1-4.8L59 68Zm26-28a6 6 0 0 1 6 6v40a6 6 0 1 1-12 0V46a6 6 0 0 1 6-6Z"/>
  <path fill="none" stroke="#334b5a" stroke-width="13" stroke-linecap="round" d="M14 130c0-16 14-28 31-28h30c17 0 31 12 31 28"/>
</svg>
